PathFileType	4	(X/Y/Z)	 s07c0402.trc
DataRate	CameraRate	NumFrames	NumMarkers	Units	OrigDataRate	OrigDataStartFrame	OrigNumFrames
200	200	4	48	mm	200	1751	2000
Frame#	Time	racr			lacr			c7			jug			rlel			rdr			llel			ldr			s2			lic			ric			lasi			rasi			rpsi			lpsi			rgt			lgt			rth1			rth2			rth3			rth4			rlfc			rmfc			rsh1			rsh2			rsh3			rsh4			rlmal			rcal			rtoe			rmt5			lth1			lth2			lth4			lth3			llfc			lmfc			lsh1			lsh2			lsh3			lsh4			llmal			lcal			ltoe			lmt5			SBIKE			LBIKE			RBIKE			
		X1	Y1	Z1	X2	Y2	Z2	X3	Y3	Z3	X4	Y4	Z4	X5	Y5	Z5	X6	Y6	Z6	X7	Y7	Z7	X8	Y8	Z8	X9	Y9	Z9	X10	Y10	Z10	X11	Y11	Z11	X12	Y12	Z12	X13	Y13	Z13	X14	Y14	Z14	X15	Y15	Z15	X16	Y16	Z16	X17	Y17	Z17	X18	Y18	Z18	X19	Y19	Z19	X20	Y20	Z20	X21	Y21	Z21	X22	Y22	Z22	X23	Y23	Z23	X24	Y24	Z24	X25	Y25	Z25	X26	Y26	Z26	X27	Y27	Z27	X28	Y28	Z28	X29	Y29	Z29	X30	Y30	Z30	X31	Y31	Z31	X32	Y32	Z32	X33	Y33	Z33	X34	Y34	Z34	X35	Y35	Z35	X36	Y36	Z36	X37	Y37	Z37	X38	Y38	Z38	X39	Y39	Z39	X40	Y40	Z40	X41	Y41	Z41	X42	Y42	Z42	X43	Y43	Z43	X44	Y44	Z44	X45	Y45	Z45	X46	Y46	Z46	X47	Y47	Z47	X48	Y48	Z48	
1751	8.7550	496.784875	1433.814077	-86.487968	481.746462	1438.767899	-368.432138	454.482121	1471.776568	-229.626982	425.729472	1330.546705	-230.239160	460.448962	1108.109142	57.082426	684.766220	936.605212	-42.789409	470.707143	1122.321108	-514.079510	692.753981	932.886421	-436.046179	-118.219504	1229.101115	-221.853329	43.991293	1277.706685	-365.781626	62.557237	1256.959334	-74.757412	68.606892	1198.695969	-346.897016	70.480100	1202.950455	-94.665048	-86.091981	1264.810887	-170.102202	-76.199837	1278.782030	-276.171372	-2.956129	1132.896368	-35.421637	-22.798985	1124.602810	-400.413424	128.393782	1046.667062	-37.713575	207.317328	1010.306349	-50.691615	259.669575	942.960981	-52.123816	226.648519	1037.196442	-68.292457	354.374032	839.799047	-87.940313	344.522629	824.992614	-191.449729	312.240869	701.909228	-62.498601	305.905594	614.340614	-83.087711	262.183680	539.603690	-76.931085	319.799270	613.914148	-121.069279	215.299008	408.031065	-77.945129	151.788718	357.511296	-106.531524	441.702790	381.781285	-118.608558	371.089086	336.372362	-49.144763	44.639937	1019.677761	-408.941399	117.071056	969.857106	-415.182722	145.097514	993.023371	-409.395490	156.051750	889.430635	-412.024480	253.691259	740.051446	-383.357498	244.861672	724.377341	-287.185603	152.247519	629.903574	-403.561318	108.154831	559.444586	-382.718568	30.989682	512.314192	-391.463488	111.359728	561.946129	-340.957024	-70.366461	425.265548	-392.159988	-152.056923	409.282399	-359.782044	118.800659	305.732102	-355.933991	35.110003	307.045508	-421.083015	-259.635099	971.795667	-232.386023	-75.675559	83.503625	-438.031288	-82.475978	79.502504	-40.500331	
1752	8.7600	493.844557	1434.284497	-87.185402	478.307064	1438.818045	-368.585161	450.860786	1471.960293	-229.944875	422.456946	1330.661646	-230.464213	460.678765	1108.660617	57.200265	684.594638	936.560708	-43.002435	470.725397	1122.506135	-514.284773	692.668567	932.797995	-435.964121	-120.950071	1227.175357	-221.980654	40.912144	1276.870446	-365.934507	59.504347	1255.683420	-74.720944	66.295671	1197.726511	-347.465591	67.772732	1201.761076	-94.587533	-89.052664	1262.981537	-170.164430	-79.020979	1277.072861	-276.300331	-5.361774	1131.044060	-35.751207	-25.838426	1123.050792	-401.376977	126.176348	1045.145037	-37.835115	205.137337	1008.720336	-50.696665	257.533560	941.356410	-52.124038	224.478179	1035.689020	-68.121621	352.428246	838.644123	-87.840945	342.786731	823.770742	-191.438085	311.058634	700.351503	-62.605317	305.134975	612.885664	-83.051394	261.747310	537.897339	-76.903739	318.974290	612.686217	-121.027381	215.398447	406.189474	-77.877168	151.948221	355.625840	-106.554528	442.900689	379.136869	-117.916533	371.191483	334.598047	-49.138608	43.509233	1018.853579	-409.052219	116.340682	969.651174	-415.180495	144.178525	993.024863	-409.306561	156.037238	889.545956	-411.856085	254.698175	740.994087	-382.850299	245.601827	725.416098	-286.478898	153.033587	631.202679	-403.143273	108.694901	560.860330	-382.370324	31.371870	513.819547	-391.049176	111.874905	563.332715	-340.617045	-70.165816	427.469838	-392.386398	-151.981662	411.382179	-359.716316	118.672421	307.354214	-355.892247	35.019104	308.852657	-421.029934	-259.706533	971.760779	-232.316456	-75.685598	83.503705	-438.025045	-82.488116	79.490216	-40.498313	
1753	8.7650	491.003063	1434.531852	-87.634262	474.813044	1438.808619	-368.681800	447.203698	1472.190709	-230.398287	419.300222	1330.673382	-230.530744	460.906035	1109.197938	57.372587	684.412496	936.501291	-43.261045	470.593711	1122.573713	-514.201363	692.601275	932.722319	-435.847345	-123.671366	1225.208574	-222.171793	37.830656	1276.027844	-366.159442	56.634229	1254.346387	-74.609624	63.762345	1196.830695	-347.589213	65.189472	1200.307185	-94.705969	-91.916714	1261.042599	-170.324934	-81.970561	1275.392129	-276.432945	-7.818318	1129.115648	-36.193066	-27.897067	1121.614524	-401.716157	123.942265	1043.133079	-37.939039	202.950384	1006.814527	-50.611045	255.326453	939.542319	-52.162003	222.379195	1033.928027	-67.866488	350.368656	837.285606	-87.642247	340.922408	822.478295	-191.269790	309.721323	698.743260	-62.627199	304.251273	611.372501	-83.000939	261.285357	536.076533	-76.851403	318.024388	611.191297	-120.937226	215.436835	404.211598	-77.840789	152.093896	353.614142	-106.564114	442.663044	377.753009	-117.869658	371.231764	332.830376	-49.145294	42.447661	1017.984759	-409.266584	115.717335	969.456697	-415.158028	143.347287	993.093706	-409.294631	156.112658	889.728193	-411.744773	255.768563	741.988907	-382.328840	246.592556	726.532509	-285.841814	153.935141	632.478647	-402.647867	109.319995	562.337187	-382.041974	31.888612	515.604555	-390.817062	112.474768	564.792001	-340.298408	-69.910109	429.551153	-392.257538	-151.806898	413.615042	-359.655386	118.585687	308.983692	-355.829612	34.930329	310.694757	-420.974390	-259.821831	971.731145	-232.273517	-75.691696	83.510293	-438.039935	-82.489018	79.507809	-40.493372	
1754	8.7700	488.041034	1435.048013	-88.385556	471.359676	1438.844312	-368.858676	443.678481	1472.443435	-230.768531	416.108635	1330.847264	-230.727787	461.195401	1109.697379	57.489477	684.236560	936.400486	-43.543235	470.517010	1122.659616	-514.071747	692.574644	932.652758	-435.728299	-126.322937	1223.191633	-222.408588	34.826307	1275.269231	-366.388261	53.668712	1252.876976	-74.679535	61.325936	1196.149370	-347.992958	62.571218	1198.893080	-94.675574	-94.803477	1259.112296	-170.419406	-84.924599	1273.717029	-276.530543	-10.055348	1127.077902	-36.720303	-29.924736	1120.274648	-402.081497	121.747218	1041.033963	-38.044092	200.716514	1004.755905	-50.499332	253.071462	937.410559	-52.176068	220.463713	1032.812661	-66.135455	348.322411	835.729235	-87.429235	339.104563	820.992503	-191.134362	308.363974	697.113582	-62.472236	303.337899	609.692792	-82.836255	260.764495	534.214548	-76.746510	317.007579	609.668250	-120.820394	215.369678	402.207073	-77.754699	152.164455	351.439596	-106.535377	442.899493	375.806246	-117.912444	369.584048	331.874938	-49.136843	41.395947	1017.130963	-409.509299	115.176482	969.292444	-415.182747	142.567300	993.139788	-409.255154	156.294975	889.918815	-411.659428	257.055172	743.016275	-381.808636	247.614309	727.745445	-285.183019	154.956474	633.785505	-402.228494	110.030808	563.881487	-381.738988	32.510015	517.428362	-390.685673	113.160859	566.329335	-340.005024	-69.606103	431.652968	-392.151129	-151.613365	415.986776	-359.574545	118.533414	310.636745	-355.796050	34.903215	312.596697	-420.933006	-259.906164	971.611317	-232.147047	-75.685604	83.505018	-438.036461	-82.489457	79.486061	-40.494811	
